<?xml version="1.0" encoding="iso-8859-1"?>
<!-- Uploaded to: SVG Repo, www.svgrepo.com, Generator: SVG Repo Mixer Tools -->
<svg version="1.1" id="Layer_1" xmlns="http://www.w3.org/2000/svg" xmlns:xlink="http://www.w3.org/1999/xlink" 
	 viewBox="0 0 504 504" xml:space="preserve">
<circle style="fill:#84DBFF;" cx="252" cy="252" r="252"/>
<path style="fill:#54C0EB;" d="M51.9,405.1C97.9,465.2,170.4,504,252,504s154.1-38.8,200.1-98.9H51.9z"/>
<rect x="119.4" y="174.2" style="fill:#E6E9EE;" width="265.3" height="231.4"/>
<rect x="164.5" y="128.7" style="fill:#FFFFFF;" width="174.9" height="277"/>
<rect x="97.1" y="391.4" style="fill:#324A5E;" width="309.9" height="14.3"/>
<g>
	<rect x="179.5" y="150.2" style="fill:#CED5E0;" width="24" height="24"/>
	<rect x="219.8" y="150.2" style="fill:#CED5E0;" width="24" height="24"/>
	<rect x="260.2" y="150.2" style="fill:#CED5E0;" width="24" height="24"/>
	<rect x="300.5" y="150.2" style="fill:#CED5E0;" width="24" height="24"/>
	<rect x="179.5" y="192.9" style="fill:#CED5E0;" width="24" height="24"/>
	<rect x="219.8" y="192.9" style="fill:#CED5E0;" width="24" height="24"/>
	<rect x="260.2" y="192.9" style="fill:#CED5E0;" width="24" height="24"/>
	<rect x="300.5" y="192.9" style="fill:#CED5E0;" width="24" height="24"/>
	<rect x="179.5" y="235.6" style="fill:#CED5E0;" width="24" height="24"/>
	<rect x="219.8" y="235.6" style="fill:#CED5E0;" width="24" height="24"/>
	<rect x="260.2" y="235.6" style="fill:#CED5E0;" width="24" height="24"/>
	<rect x="300.5" y="235.6" style="fill:#CED5E0;" width="24" height="24"/>
	<rect x="179.5" y="278.2" style="fill:#CED5E0;" width="24" height="24"/>
	<rect x="219.8" y="278.2" style="fill:#CED5E0;" width="24" height="24"/>
	<rect x="260.2" y="278.2" style="fill:#CED5E0;" width="24" height="24"/>
	<rect x="300.5" y="278.2" style="fill:#CED5E0;" width="24" height="24"/>
	<rect x="179.5" y="320.9" style="fill:#CED5E0;" width="24" height="24"/>
	<rect x="219.8" y="320.9" style="fill:#CED5E0;" width="24" height="24"/>
	<rect x="260.2" y="320.9" style="fill:#CED5E0;" width="24" height="24"/>
	<rect x="300.5" y="320.9" style="fill:#CED5E0;" width="24" height="24"/>
</g>
<g>
	<polygon style="fill:#FF7058;" points="252,57.6 261.4,76.7 282.5,79.8 267.2,94.7 270.8,115.6 252,105.7 233.2,115.6 236.8,94.7 
		221.5,79.8 242.6,76.7 	"/>
	<polygon style="fill:#FF7058;" points="312.7,72.8 318.7,85 332.2,86.9 322.5,96.5 324.8,109.9 312.7,103.6 300.6,109.9 
		302.9,96.5 293.2,86.9 306.7,85 	"/>
	<polygon style="fill:#FF7058;" points="358.3,86.6 362,94.3 370.5,95.5 364.4,101.5 365.8,109.9 358.3,105.9 350.7,109.9 
		352.1,101.5 346,95.5 354.5,94.3 	"/>
	<polygon style="fill:#FF7058;" points="191.3,72.8 185.3,85 171.8,86.9 181.5,96.5 179.2,109.9 191.3,103.6 203.4,109.9 
		201.1,96.5 210.8,86.9 197.3,85 	"/>
	<polygon style="fill:#FF7058;" points="145.7,86.6 142,94.3 133.5,95.5 139.6,101.5 138.2,109.9 145.7,105.9 153.3,109.9 
		151.9,101.5 158,95.5 149.5,94.3 	"/>
	<rect x="219.8" y="357.5" style="fill:#FF7058;" width="64.3" height="33.9"/>
</g>
<g>
	<rect x="132.6" y="192.9" style="fill:#4CDBC4;" width="19.7" height="21.4"/>
	<rect x="132.6" y="232.4" style="fill:#4CDBC4;" width="19.7" height="21.4"/>
	<rect x="132.6" y="272" style="fill:#4CDBC4;" width="19.7" height="21.4"/>
	<rect x="132.6" y="311.5" style="fill:#4CDBC4;" width="19.7" height="21.4"/>
	<rect x="132.6" y="351.1" style="fill:#4CDBC4;" width="19.7" height="21.4"/>
	<rect x="351.7" y="192.9" style="fill:#4CDBC4;" width="19.7" height="21.4"/>
	<rect x="351.7" y="232.4" style="fill:#4CDBC4;" width="19.7" height="21.4"/>
	<rect x="351.7" y="272" style="fill:#4CDBC4;" width="19.7" height="21.4"/>
	<rect x="351.7" y="311.5" style="fill:#4CDBC4;" width="19.7" height="21.4"/>
	<rect x="351.7" y="351.1" style="fill:#4CDBC4;" width="19.7" height="21.4"/>
</g>
</svg>